# xmcd
#
# Track frame offsets:
#	150
#	15284
#	30575
#	51230
#	66364
#	80871
#	97224
#	111644
#	126168
#	145987
#	161852
#	181618
#	202255
#	223275
#	240725
#	255894
#	272265
#	284978
#	298231
#	311310
#	327437
#	341805
#
# Disc length: 4753 seconds
#
# Revision: 0
# Processed by: cddbd v1.5.2PL0 Copyright (c) Steve Scherf et al.
# Submitted via: EZCDAudioConverter 2.4.0.1
#
DISCID=66128f16
DTITLE=Various Artist - Explosão Sertaneja 11
DYEAR=2003
DGENRE=Sertanejo
TTITLE0=João Pedro and Cristiano - Vida Cigana
TTITLE1=Ataíde and Alexandre - Deus Me Livre
TTITLE2=Daniel - Seus Beijos
TTITLE3=Sérgio Reis - O Menino da Porteira
TTITLE4=Chico Rey and Paraná - Tranque a Porta e Me Beije
TTITLE5=Chrystian and Ralf - Eu Quero Seu Amor
TTITLE6=Roberta Miranda - Dois em Um
TTITLE7=Gian and Giovani - Teimosia
TTITLE8=Leonardo - Mentira que Virou Paixão
TTITLE9=Guilherme and Santiago - Perdi Você
TTITLE10=Marlon and Maicon - Tudo Me Lembra Você (Mi Dios and Mi Cruz)
TTITLE11=Zezé Di Camargo and Luciano Feat. Julio Iglesias - Dois Amigos
TTITLE12=Rick and Rener - A Força do Amor (Ao Vivo)
TTITLE13=Milionário and José Rico - O Último Julgamento
TTITLE14=Rionegro and Solimões - Temporal de Lágrimas
TTITLE15=Chitãozinho and Xororó - Fogão de Lenha
TTITLE16=Trio Parada Dura - Espinho na Cama
TTITLE17=Gilberto and Gilmar - Só Mais Uma Vez
TTITLE18=Gilberto and Gilmar - Música da Saudade
TTITLE19=Duduca and Dalvan - Rastros na Areia
TTITLE20=Matogrosso and Mathias  - Volte Amor
TTITLE21=Tony Francis - Madrugada
EXTD=
EXTT0=
EXTT1=
EXTT2=
EXTT3=
EXTT4=
EXTT5=
EXTT6=
EXTT7=
EXTT8=
EXTT9=
EXTT10=
EXTT11=
EXTT12=
EXTT13=
EXTT14=
EXTT15=
EXTT16=
EXTT17=
EXTT18=
EXTT19=
EXTT20=
EXTT21=
PLAYORDER=
